<svg width="64" height="64" viewBox="0 0 64 64" xmlns="http://www.w3.org/2000/svg">
  <!-- Cupcake Base -->
  <path d="M14 56 L50 56 L54 36 L10 36 Z" fill="#F3D479"/>
  <path d="M16 54 L48 54 L51.5 38 L12.5 38 Z" fill="#FAD9A1"/>
  <line x1="22" y1="38" x2="24" y2="54" stroke="#E6C891" stroke-width="1.5"/>
  <line x1="32" y1="38" x2="32" y2="54" stroke="#E6C891" stroke-width="1.5"/>
  <line x1="42" y1="38" x2="40" y2="54" stroke="#E6C891" stroke-width="1.5"/>

  <!-- Chocolate part -->
  <path d="M12 38 C 12 32, 52 32, 52 38 Z" fill="#6B4F4F"/>

  <!-- Frosting -->
  <path d="M14 36 C 10 26, 20 14, 32 14 C 44 14, 54 26, 50 36 Z" fill="#FF89BB"/>
  <path d="M16 36 C 13 28, 22 18, 32 18 C 42 18, 51 28, 48 36 Z" fill="#FFACCF"/>

  <!-- Face -->
  <circle cx="26" cy="28" r="2" fill="black"/>
  <circle cx="38" cy="28" r="2" fill="black"/>
  <path d="M30 32 C 32 34, 34 34, 36 32" stroke="black" stroke-width="1.5" fill="none" stroke-linecap="round"/>

  <!-- Sprinkles -->
  <circle cx="22" cy="24" r="1.5" fill="#63D3FF"/>
  <circle cx="42" cy="24" r="1.5" fill="#63D3FF"/>
  <circle cx="32" cy="22" r="1.5" fill="#FFD163"/>

  <!-- Cherry -->
  <path d="M30 14 A 4 4 0 0 1 34 10 A 4 4 0 0 1 38 14" fill="#FF6363"/>
  <path d="M34 10 C 36 6, 38 6, 38 4" stroke="#000000" stroke-width="1" fill="none" stroke-linecap="round"/>
</svg>